<?xml version='1.0' encoding='UTF-8'?>
<svg viewBox="-2.1 -2 32 32" xmlns="http://www.w3.org/2000/svg" xmlns:xlink="http://www.w3.org/1999/xlink">
  <g id="Layer_1" transform="translate(-2.1, -2)" style="enable-background:new 0 0 32 32">
    <g id="Hyperlink">
      <path d="M10.3, 21.7C10.7, 22.1 11.3, 22.1 11.7, 21.7L21.7, 11.7C22.1, 11.3 22.1, 10.7 21.7, 10.3C21.3, 9.9 20.7, 9.9 20.3, 10.3L10.3, 20.3C9.9, 20.7 9.9, 21.3 10.3, 21.7z" fill="#727272" class="Black" />
    </g>
  </g>
  <g id="Layer_1" transform="translate(-2.1, -2)" style="enable-background:new 0 0 32 32">
    <g id="Hyperlink">
      <path d="M15.4, 19.5C15.9, 20.6 15.7, 22 14.8, 22.9L10.6, 27.1C9.4, 28.3 7.5, 28.3 6.4, 27.1L5, 25.7C3.8, 24.5 3.8, 22.6 5, 21.5L9.2, 17.3C10.1, 16.4 11.5, 16.2 12.6, 16.7L14.1, 15.2C12.2, 13.9 9.5, 14.1 7.8, 15.8L3.6, 20C1.6, 22 1.6, 25.1 3.6, 27.1L5, 28.5C7, 30.5 10.1, 30.5 12.1, 28.5L16.3, 24.3C18, 22.6 18.2, 20 16.9, 18L15.4, 19.5z" fill="#727272" class="Black" />
    </g>
  </g>
  <g id="Layer_1" transform="translate(-2.1, -2)" style="enable-background:new 0 0 32 32">
    <g id="Hyperlink">
      <path d="M28.5, 4.9L27.1, 3.5C25.1, 1.5 22, 1.5 20, 3.5L15.8, 7.7C14.1, 9.4 13.9, 12 15.2, 14L16.7, 12.5C16.2, 11.4 16.4, 10 17.3, 9.1L21.5, 4.9C22.7, 3.7 24.6, 3.7 25.7, 4.9L27.1, 6.3C28.3, 7.5 28.3, 9.4 27.1, 10.5L22.9, 14.7C22, 15.6 20.6, 15.8 19.5, 15.3L18, 16.8C19.9, 18.1 22.6, 17.9 24.3, 16.2L28.5, 12C30.5, 10 30.5, 6.8 28.5, 4.9z" fill="#727272" class="Black" />
    </g>
  </g>
</svg>